<?xml version="1.0" encoding="UTF-8"?>
<svg id="Layer_2" data-name="Layer 2" xmlns="http://www.w3.org/2000/svg" viewBox="0 0 570.35 404.39">
  <g id="Layer_3" data-name="Layer 3">
    <g>
      <g>
        <path d="M509.44,305.97c-4.55,0-8.18,1.93-10.9,5.78-3.41,4.92-5.12,14-5.12,27.24s1.55,22.06,4.65,26.44c3.1,4.38,6.92,6.58,11.47,6.58s8.37-2.2,11.47-6.6c3.1-4.4,4.65-13.21,4.65-26.42s-1.55-22.1-4.65-26.47c-3.1-4.37-6.96-6.55-11.58-6.55Z"/>
        <path d="M489.39,275.82c-5.19-73.41-49.68-128.28-120.12-132.73s-134.21,31.14-141.63,132.73c-45.97-5.19-83.79,20.76-84.53,60.06-.74,39.3,30.4,71.92,68.96,68.22h300.91c13.48,0,54.26-20.76,57.23-63.03s-42.27-75.63-80.82-65.25ZM441.31,378.77h-53.33c-.07-2.38.31-4.68,1.16-6.88,1.36-3.63,3.53-7.21,6.52-10.73,2.99-3.52,7.31-7.59,12.96-12.22,8.77-7.19,14.69-12.89,17.78-17.09,3.08-4.2,4.62-8.17,4.62-11.91,0-3.93-1.4-7.24-4.21-9.93s-6.47-4.04-10.98-4.04c-4.77,0-8.59,1.43-11.45,4.29s-4.31,6.82-4.35,11.89l-10.18-1.05c.7-7.59,3.32-13.38,7.87-17.36,4.55-3.98,10.66-5.97,18.33-5.97s13.87,2.15,18.38,6.44,6.77,9.61,6.77,15.96c0,3.23-.66,6.4-1.98,9.52-1.32,3.12-3.51,6.4-6.58,9.85-3.06,3.45-8.15,8.18-15.27,14.2-5.94,4.99-9.76,8.37-11.45,10.15-1.69,1.78-3.08,3.57-4.18,5.37h39.57v9.52ZM468.77,378.77h-11.28v-11.28h11.28v11.28ZM532.94,361.91c-1.94,5.82-4.85,10.31-8.72,13.48-3.87,3.17-8.76,4.76-14.67,4.76-7.78,0-13.89-2.79-18.33-8.36-5.32-6.71-7.98-17.65-7.98-32.8,0-9.54.98-17.22,2.94-23.03,1.96-5.81,4.88-10.3,8.75-13.46,3.87-3.15,8.74-4.73,14.61-4.73,4.33,0,8.13.87,11.39,2.61,3.27,1.74,5.96,4.26,8.09,7.54,2.13,3.28,3.8,7.28,5.01,12,1.21,4.71,1.82,11.07,1.82,19.07,0,9.47-.97,17.11-2.92,22.92Z"/>
      </g>
      <g>
        <path d="M131.99,293.62c18.51,17.51,2.97-42.27,72.67-39.3,5.93-90.46,93.43-118.64,93.43-118.64,0,0-43.01-56.35-114.93-40.04-71.92,16.31-86.01,73.41-86.01,73.41,0,0-33.37,60.06,34.85,124.57Z"/>
        <rect x="48.2" y="67.46" width="57.1" height="21.5" rx="10.75" ry="10.75" transform="translate(77.78 -31.36) rotate(45)"/>
        <rect x="167.58" y="17.78" width="57.1" height="21.5" rx="10.75" ry="10.75" transform="translate(216.84 -168.57) rotate(87.72)"/>
        <rect x="286.22" y="60.05" width="57.1" height="21.5" rx="10.75" ry="10.75" transform="translate(587.4 -101.71) rotate(135)"/>
        <rect x="0" y="189.07" width="57.1" height="21.5" rx="10.75" ry="10.75"/>
        <rect x="53.39" y="304" width="57.1" height="21.5" rx="10.75" ry="10.75" transform="translate(-198.56 150.13) rotate(-45)"/>
      </g>
    </g>
  </g>
</svg>